<?xml version="1.0"?>
<svg xmlns="http://www.w3.org/2000/svg" id="Capa_1" enable-background="new 0 0 512 512" height="512px" viewBox="0 0 512 512" width="512px"><g><path d="m285.923 451c8.282 0 14.996-6.716 14.996-15s-6.714-15-14.996-15h-270.927c-8.282 0-14.996 6.716-14.996 15s6.714 15 14.996 15h33.571c-10.366 29.238 11.453 60 42.409 60 31.024 0 52.755-30.817 42.409-60h36.15c-10.366 29.238 11.453 60 42.409 60 31.024 0 52.755-30.817 42.409-60z" fill="#FFFFFF"/><path d="m136.463 316c0-8.284-6.714-15-14.996-15h-30.242v25c0 8.284-6.714 15-14.996 15s-14.996-6.716-14.996-15v-25h-30.241c-8.282 0-14.996 6.716-14.996 15v75h120.468v-75z" fill="#FFFFFF"/><path d="m181.451 301c-8.282 0-14.996 6.716-14.996 15v75h120.468v-75c0-8.284-6.714-15-14.996-15h-30.242v26c0 8.284-6.714 15-14.996 15s-14.996-6.716-14.996-15v-26z" fill="#FFFFFF"/><path d="m90.976 181c-8.278 0-14.996 6.72-14.996 15v75h149.96v-75c0-8.28-6.718-15-14.996-15h-44.988v25c0 8.284-6.714 15-14.996 15s-14.996-6.716-14.996-15v-25z" fill="#FFFFFF"/><path d="m497.004 391.034c8.282 0 14.996-6.716 14.996-15-.007-6.201-.131-121.081-.138-127.279-1.327 6.927-7.408 12.163-14.72 12.163h-24.225c-8.282 0-14.996-6.716-14.996-15s6.714-15 14.996-15h24.225c7.311 0 13.393 5.237 14.72 12.163v-79.291c0-9.24-5.836-13.141-15.036-15l-200.976.58-76.142-119.301c.924 0 1.386.001 2.902.001 8.277 0 14.99-6.709 14.996-14.989.006-8.284-6.703-15.005-14.985-15.011-16.484-.008-115.386-.061-131.915-.07 0 0 0 0-.01 0-8.278 0-14.986 6.71-14.996 14.99 0 8.28 6.708 15 14.986 15.01l30.052.02-.071 120.98h90.276c24.803 0 44.988 20.19 44.988 45v75h15.996c24.803 0 44.988 20.19 44.988 45v38.422l76.592 27.696-103.219 103.277c-9.473 9.48-2.633 25.605 10.606 25.605 3.838 0 7.678-1.465 10.606-4.395l115.506-115.571h23.703v34.061c-16.84 6.491-28.826 22.844-28.826 41.955 0 24.785 20.152 44.95 44.922 44.95s44.921-20.165 44.921-44.95c0-19.933-13.037-36.867-31.024-42.738v-33.277h16.302zm-30.2 90.966c-8.232 0-14.93-6.707-14.93-14.95s6.697-14.95 14.93-14.95c8.231 0 14.929 6.707 14.929 14.95s-6.698 14.95-14.929 14.95zm-116.831-251.082h23.949c8.282 0 14.996 6.716 14.996 15s-6.714 15-14.996 15h-23.949c-8.282 0-14.996-6.716-14.996-15s6.714-15 14.996-15z" fill="#FFFFFF"/></g></svg>
