<?xml version="1.0"?>
<svg xmlns="http://www.w3.org/2000/svg" id="Capa_1" enable-background="new 0 0 512 512" height="512px" viewBox="0 0 512 512" width="512px"><path d="m173.5 121h-60c-8.284 0-15 6.716-15 15v60c0 8.284 6.716 15 15 15h60c8.284 0 15-6.716 15-15v-60c0-8.284-6.716-15-15-15zm-15 60h-30v-30h30z" fill="#FFFFFF"/><path d="m406.413 291.814c-8.002-12.501-22.001-20.812-37.913-20.814v-226c0-24.813-20.187-45-45-45h-240c-24.813 0-45 20.187-45 45v391c0 24.813 20.187 45 45 45 112.596 0 105.363.077 107.072-.16l15.235 24.161c2.748 4.356 7.538 6.999 12.688 6.999h210.005c5.069 0 9.795-2.56 12.564-6.806l30-46c1.589-2.437 2.436-5.284 2.436-8.194v-119.998c0-34.378-37.223-56.084-67.087-39.188zm-127.913-114.315c-7.967-7.143-18.483-11.498-30-11.499v-15h30zm14.995 33.501c8.308 0 15.005-6.732 15.005-15v-60c0-8.284-6.716-15-15-15h-60c-8.284 0-15 6.716-15 15v41.491c-9.202 8.245-15.005 20.21-15.005 33.509v120.816l-3.596-5.737c-13.059-20.839-40.338-27.426-61.472-14.829-21.856 13.029-28.663 41.442-15.095 62.959l10.589 16.791h-65.421v-300h270v176.499c-12.324-11.049-29.555-14.399-45.005-8.919 0-4.425 0-43.144 0-47.58zm-209.995-181h240c8.271 0 15 6.729 15 15v16h-270v-16c0-8.271 6.729-15 15-15zm0 421c-8.271 0-15-6.729-15-15v-15h84.338l18.917 30zm360-4.459-23.125 35.459h-193.605l-78.06-123.792c-4.568-7.242-2.274-16.805 5.079-21.189 7.048-4.203 16.332-1.964 20.69 4.991l31.305 49.956c3.553 5.667 10.432 8.3 16.854 6.451 6.429-1.848 10.856-7.728 10.856-14.416v-173.001c0-8.271 6.729-15 15-15s15 6.729 15 15v166c0 8.284 6.716 15 15 15s15-6.716 15-15v-76c0-8.271 6.729-15 15-15s15 6.729 15 15v15 61c0 8.284 6.716 15 15 15s15-6.716 15-15v-61c0-8.271 6.729-15 15-15s15 6.729 15 15v15.002 45.998c0 8.284 6.716 15 15 15s15-6.716 15-15v-45.998c0-8.272 6.729-15.002 15.002-15.002s15.003 6.73 15.003 15.002v115.539z" fill="#FFFFFF"/></svg>
