<?xml version="1.0" encoding="iso-8859-1"?>
<!-- Generator: Adobe Illustrator 19.0.0, SVG Export Plug-In . SVG Version: 6.00 Build 0)  -->
<svg xmlns="http://www.w3.org/2000/svg" xmlns:xlink="http://www.w3.org/1999/xlink" version="1.1" id="Layer_1" x="0px" y="0px" viewBox="0 0 512 512" style="enable-background:new 0 0 512 512;" xml:space="preserve" width="512px" height="512px">
<g>
	<g>
		<path d="M105.124,331.213c4.062,72.469,37.004,114.855,59.824,135.776V331.213H105.124z" fill="#1F71FA"/>
	</g>
</g>
<g>
	<g>
		<path d="M194.985,331.213V466.96c5.987-5.474,12.651-12.388,19.28-20.891c24.493-31.421,38.104-70.004,40.561-114.856H194.985z" fill="#1F71FA"/>
	</g>
</g>
<g>
	<g>
		<path d="M145.668,186.322c-24.493,31.421-38.103,70.004-40.561,114.854h59.841V165.43    C158.962,170.904,152.298,177.818,145.668,186.322z" fill="#1F71FA"/>
	</g>
</g>
<g>
	<g>
		<path d="M334.606,222.891l-33.157,68.522l-4.724,9.764h63.208C357.588,272.695,348.632,246.088,334.606,222.891z" fill="#1F71FA"/>
	</g>
</g>
<g>
	<g>
		<path d="M209.228,137.971c7.857,6.594,17.022,15.409,26.207,26.723l3.941-19.074C229.676,142.242,219.601,139.662,209.228,137.971    z" fill="#1F71FA"/>
	</g>
</g>
<g>
	<g>
		<path d="M284.885,331.214c-3.288,64.975-27.475,108.807-48.008,134.692c-9.663,12.182-19.38,21.574-27.649,28.513    c80.984-13.198,143.874-80.253,150.705-163.205H284.885z" fill="#1F71FA"/>
	</g>
</g>
<g>
	<g>
		<path d="M123.056,465.906c-20.533-25.885-44.721-69.716-48.008-134.693H0c6.831,82.952,69.72,150.008,150.705,163.205    C142.436,487.48,132.719,478.088,123.056,465.906z" fill="#1F71FA"/>
	</g>
</g>
<g>
	<g>
		<path d="M249.239,294.615l-24.133-37.387l-6.658-10.316l8.642-41.829c-3.879-6.51-8.152-12.767-12.825-18.761    c-6.629-8.504-13.293-15.417-19.28-20.892v135.745h58.49L249.239,294.615z" fill="#1F71FA"/>
	</g>
</g>
<g>
	<g>
		<path d="M0,301.176h75.048c3.287-64.974,27.475-108.805,48.008-134.69c9.663-12.183,19.381-21.576,27.65-28.515    C69.721,151.168,6.831,218.224,0,301.176z" fill="#1F71FA"/>
	</g>
</g>
<g>
	<g>
		<path d="M488.229,191.772l-59.719,2.044c-15.942-22.536-36.712-48.802-56.047-72.024l113.412-54.877l-37.387-24.133    L325.245,68.245l-40.418-40.418c-13.661-13.661-35.809-13.661-49.47,0c-13.661,13.661-13.661,35.809,0,49.47l40.418,40.418    l-25.462,123.243l24.132,37.387l54.877-113.412c23.222,19.335,49.488,40.106,72.024,56.047l-2.044,59.719l17.742,23.771    l29.146-65.811L512,209.514L488.229,191.772z" fill="#1F71FA"/>
	</g>
</g>
<g>
</g>
<g>
</g>
<g>
</g>
<g>
</g>
<g>
</g>
<g>
</g>
<g>
</g>
<g>
</g>
<g>
</g>
<g>
</g>
<g>
</g>
<g>
</g>
<g>
</g>
<g>
</g>
<g>
</g>
</svg>
