<?xml version="1.0" encoding="iso-8859-1"?>
<!-- Generator: Adobe Illustrator 19.0.0, SVG Export Plug-In . SVG Version: 6.00 Build 0)  -->
<svg xmlns="http://www.w3.org/2000/svg" xmlns:xlink="http://www.w3.org/1999/xlink" version="1.1" id="Capa_1" x="0px" y="0px" viewBox="0 0 512 512" style="enable-background:new 0 0 512 512;" xml:space="preserve" width="512px" height="512px">
<g>
	<g>
		<path d="M502.399,274.324c-13.342-13.863-35.87-13.603-49.475,0.002l-70.898,70.898c-2.85,2.85-5.059,6.26-6.599,9.983    c-9.656,23.342-32.67,39.807-59.46,39.807H215.902v-30h100.066c18.951,0,34.314-15.363,34.314-34.314    s-15.363-34.313-34.314-34.313h-67.595c-21.303,0-42.262-5.37-60.941-15.613c-35.658-19.554-79.944-13.228-108.701,15.529    l-78.712,78.75L136.967,512c24.168-24.168,56.947-37.745,91.125-37.745h79.964c27.397,0,53.664-10.921,72.984-30.345    l120.89-121.536C515.173,309.132,515.329,287.758,502.399,274.324z" fill="#1F71FA"/>
	</g>
</g>
<g>
	<g>
		<path d="M255.981,0L111.077,83.66v160.221c4.951-1.357,10.013-2.421,15.174-3.158c26.23-3.746,52.373,1.007,75.605,13.747    c12.052,6.609,25.448,10.565,39.125,11.621V175.98l-99.904-57.68v-17.32l15-8.66L255.981,150l99.904-57.68l15,8.66v17.32    l-99.904,57.68v90.406h44.986c13.94,0,26.855,4.462,37.401,12.027l47.516-27.434V83.66L255.981,0z" fill="#1F71FA"/>
	</g>
</g>
<g>
</g>
<g>
</g>
<g>
</g>
<g>
</g>
<g>
</g>
<g>
</g>
<g>
</g>
<g>
</g>
<g>
</g>
<g>
</g>
<g>
</g>
<g>
</g>
<g>
</g>
<g>
</g>
<g>
</g>
</svg>
