<?xml version="1.0"?>
<svg xmlns="http://www.w3.org/2000/svg" id="Layer_1" enable-background="new 0 0 506.139 506.139" height="512px" viewBox="0 0 506.139 506.139" width="512px"><path d="m128.621 134.599 222.768-95.506-92.24-37.893c-3.896-1.6-8.264-1.6-12.16 0l-221.545 91.013z" fill="#FFFFFF"/><path d="m392.849 56.125-222.836 95.478 83.056 34.121 227.626-93.511z" fill="#FFFFFF"/><path d="m237.069 213.746-90.147-37.033v70.118c0 8.836-7.164 16-16 16s-16-7.164-16-16v-83.264l-103.841-42.659v281.668c0 6.488 3.918 12.334 9.92 14.8l216.068 88.763z" fill="#FFFFFF"/><path d="m269.069 213.746v292.393l216.068-88.763c6.002-2.465 9.92-8.312 9.92-14.8 0-10.766 0-269.883 0-281.668z" fill="#FFFFFF"/></svg>
