<?xml version="1.0" encoding="iso-8859-1"?>
<!-- Generator: Adobe Illustrator 19.0.0, SVG Export Plug-In . SVG Version: 6.00 Build 0)  -->
<svg xmlns="http://www.w3.org/2000/svg" xmlns:xlink="http://www.w3.org/1999/xlink" version="1.1" id="Capa_1" x="0px" y="0px" viewBox="0 0 490.667 490.667" style="enable-background:new 0 0 490.667 490.667;" xml:space="preserve" width="512px" height="512px">
<g>
	<g>
		<path d="M480,426.667c-24.277,0-36.885,13.739-46.997,24.789c-9.152,9.984-16.405,17.877-31.296,17.877    c-14.891,0-22.144-7.893-31.317-17.877c-10.133-11.051-22.763-24.789-47.019-24.789c-24.235,0-36.821,13.739-46.955,24.789    c-9.152,9.984-16.384,17.877-31.232,17.877c-14.827,0-22.059-7.893-31.211-17.877c-10.112-11.029-22.699-24.789-46.955-24.789    c-24.256,0-36.843,13.76-46.955,24.789c-9.131,9.984-16.363,17.877-31.211,17.877c-14.848,0-22.08-7.893-31.232-17.877    c-10.112-11.029-22.72-24.789-46.955-24.789C4.779,426.667,0,431.445,0,437.333C0,443.221,4.779,448,10.667,448    c14.848,0,22.08,7.893,31.232,17.877c10.112,11.029,22.72,24.789,46.955,24.789s36.821-13.76,46.955-24.789    c9.131-9.984,16.384-17.877,31.211-17.877s22.059,7.893,31.211,17.877c10.112,11.029,22.72,24.789,46.955,24.789    c24.235,0,36.821-13.739,46.955-24.789c9.152-9.984,16.384-17.877,31.232-17.877c14.869,0,22.123,7.893,31.296,17.877    c10.133,11.029,22.741,24.789,47.019,24.789c24.277,0,36.885-13.739,47.019-24.789C457.856,455.893,465.109,448,480,448    c5.888,0,10.667-4.779,10.667-10.667C490.667,431.445,485.888,426.667,480,426.667z" fill="#FFFFFF"/>
	</g>
</g>
<g>
	<g>
		<path d="M480,384c-24.277,0-36.885,13.739-46.997,24.789c-9.152,9.984-16.405,17.877-31.296,17.877    c-14.891,0-22.144-7.893-31.317-17.877C360.256,397.739,347.627,384,323.371,384c-24.235,0-36.821,13.739-46.955,24.789    c-9.152,9.984-16.384,17.877-31.232,17.877c-14.827,0-22.059-7.893-31.211-17.877C203.861,397.76,191.275,384,167.019,384    c-24.256,0-36.843,13.76-46.955,24.789c-9.131,9.984-16.363,17.877-31.211,17.877c-14.848,0-22.08-7.893-31.232-17.877    C47.509,397.76,34.901,384,10.667,384C4.779,384,0,388.779,0,394.667c0,5.888,4.779,10.667,10.667,10.667    c14.848,0,22.08,7.893,31.232,17.877C52.011,434.24,64.619,448,88.853,448s36.821-13.76,46.955-24.789    c9.131-9.984,16.384-17.877,31.211-17.877s22.059,7.893,31.211,17.877C208.341,434.24,220.949,448,245.184,448    c24.235,0,36.821-13.739,46.955-24.789c9.152-9.984,16.384-17.877,31.232-17.877c14.869,0,22.123,7.893,31.296,17.877    C364.8,434.24,377.408,448,401.685,448c24.277,0,36.885-13.739,47.019-24.789c9.152-9.984,16.405-17.877,31.296-17.877    c5.888,0,10.667-4.779,10.667-10.667C490.667,388.779,485.888,384,480,384z" fill="#FFFFFF"/>
	</g>
</g>
<g>
	<g>
		<path d="M446.763,261.696c-1.472-2.773-4.075-4.757-7.125-5.44l-192-42.667c-1.515-0.341-3.115-0.341-4.629,0l-192,42.667    c-3.051,0.683-5.653,2.667-7.125,5.44c-1.451,2.773-1.621,6.037-0.469,8.939L107.328,430.4c1.28,3.2,4.011,5.589,7.36,6.4    c3.328,0.747,6.869-0.021,9.493-2.261c4.032-3.477,7.68-7.381,11.307-11.307c9.259-10.005,16.555-17.899,31.531-17.899    c14.976,0,22.272,7.915,31.531,17.899c3.712,4.011,7.467,8.021,11.605,11.563c1.92,1.643,4.373,2.539,6.891,2.539h17.621V266.667    c0-5.888,4.779-10.667,10.667-10.667S256,260.779,256,266.667v170.667h17.323c2.539,0,4.971-0.896,6.912-2.539    c4.16-3.541,7.893-7.531,11.605-11.563c9.259-10.005,16.555-17.899,31.531-17.899c15.019,0,22.336,7.915,31.595,17.92    c3.669,3.968,7.381,7.936,11.499,11.435c2.624,2.219,6.101,3.051,9.472,2.24c3.328-0.832,6.059-3.2,7.339-6.4l63.957-159.893    C448.405,267.712,448.235,264.448,446.763,261.696z" fill="#FFFFFF"/>
	</g>
</g>
<g>
	<g>
		<path d="M138.667,0C132.779,0,128,4.779,128,10.667v32h85.333V0H138.667z" fill="#FFFFFF"/>
	</g>
</g>
<g>
	<g>
		<path d="M352,0H234.667v42.667h128v-32C362.667,4.779,357.888,0,352,0z" fill="#FFFFFF"/>
	</g>
</g>
<g>
	<g>
		<rect x="170.667" y="64" width="64" height="64" fill="#FFFFFF"/>
	</g>
</g>
<g>
	<g>
		<path d="M394.667,64H320v64h85.333V74.667C405.333,68.779,400.555,64,394.667,64z" fill="#FFFFFF"/>
	</g>
</g>
<g>
	<g>
		<polygon points="256,149.333 256,193.6 298.667,203.072 298.667,149.333   " fill="#FFFFFF"/>
	</g>
</g>
<g>
	<g>
		<polygon points="170.667,149.333 170.667,207.808 234.667,193.6 234.667,149.333   " fill="#FFFFFF"/>
	</g>
</g>
<g>
	<g>
		<path d="M96,64c-5.888,0-10.667,4.779-10.667,10.667V128h64V64H96z" fill="#FFFFFF"/>
	</g>
</g>
<g>
	<g>
		<path d="M320,149.333v58.475l72.363,16.085c0.768,0.171,1.536,0.256,2.304,0.256c2.411,0,4.757-0.811,6.677-2.347    c2.517-2.027,3.989-5.077,3.989-8.32v-64.149H320z" fill="#FFFFFF"/>
	</g>
</g>
<g>
	<g>
		<path d="M85.333,149.333v64.149c0,3.243,1.472,6.293,3.989,8.32c2.539,2.027,5.888,2.773,8.981,2.091l51.029-11.328v-63.232    H85.333z" fill="#FFFFFF"/>
	</g>
</g>
<g>
	<g>
		<rect x="256" y="64" width="42.667" height="64" fill="#FFFFFF"/>
	</g>
</g>
<g>
</g>
<g>
</g>
<g>
</g>
<g>
</g>
<g>
</g>
<g>
</g>
<g>
</g>
<g>
</g>
<g>
</g>
<g>
</g>
<g>
</g>
<g>
</g>
<g>
</g>
<g>
</g>
<g>
</g>
</svg>
