<?xml version="1.0"?>
<svg xmlns="http://www.w3.org/2000/svg" id="Capa_1" enable-background="new 0 0 512 512" height="512px" viewBox="0 0 512 512" width="512px"><g><circle cx="256" cy="135.625" r="22.125" fill="#0E377B"/><path d="m411.032 211.667-104.538-63.088c-2.576 10.036-8.073 18.913-15.528 25.669l62.004 37.419h-193.94l62.004-37.419c-7.455-6.755-12.952-15.632-15.528-25.669l-104.538 63.088h-100.968v300.333h512v-300.333zm-320.187 230.666h-30v-161h30zm60.201 0h-30v-161h30zm60.201 0h-30v-161h30zm60.201 0h-30v-161h30zm60.201 0h-30v-161h30zm60.201 0h-30v-161h30zm59.305 0h-30v-161h30z" fill="#0E377B"/><path d="m241 85.71c4.753-1.431 9.786-2.21 15-2.21s10.247.779 15 2.21v-27.46h95v-58.25h-220v58.25h95z" fill="#0E377B"/></g></svg>
