<?xml version="1.0" encoding="iso-8859-1"?>
<!-- Generator: Adobe Illustrator 19.0.0, SVG Export Plug-In . SVG Version: 6.00 Build 0)  -->
<svg xmlns="http://www.w3.org/2000/svg" xmlns:xlink="http://www.w3.org/1999/xlink" version="1.1" id="Capa_1" x="0px" y="0px" viewBox="0 0 512 512" style="enable-background:new 0 0 512 512;" xml:space="preserve" width="512px" height="512px">
<g>
	<g>
		<path d="M483.462,493.045l-40.559-148.39c-0.912-3.337-2.949-6.257-5.767-8.264c-64.291-45.785-43.216-30.777-98.177-69.915    c20.862-21.438,32.888-50.42,32.888-80.758c0-60.48,0.402-63.79-1.371-74.824C369.821,47.582,321.836,0,258.332,0h-4.664    C190.165,0,142.18,47.582,141.525,110.895c-1.773,11.034-1.371,14.341-1.371,74.824c0,30.336,12.026,59.318,32.889,80.758    c-69.552,49.528-28.912,20.587-98.178,69.915c-2.818,2.007-4.856,4.927-5.768,8.264l-40.559,148.39    C25.931,502.585,33.124,512,43.007,512h197.994V353.483l15-9.855l15,9.855V512h197.994    C478.883,512,486.068,502.577,483.462,493.045z M246.205,48.602h19.591c8.284,0,15,6.716,15,15s-6.716,15-15,15h-19.591    c-8.284,0-15-6.716-15-15S237.921,48.602,246.205,48.602z M241.002,317.587l-32.995,21.679l-44.013-29.516l33.702-24    c13.776,8.035,28.656,12.842,43.306,14.728V317.587z M256.001,271.44c-47.645,0-85.847-38.667-85.847-85.721    c-0.001-10.742-0.013-19.632-0.023-27.076l8.064,11.773c2.796,4.083,7.426,6.523,12.375,6.523h130.861    c4.948,0,9.578-2.44,12.375-6.523l8.064-11.773c-0.01,7.443-0.022,16.334-0.022,27.076    C341.848,232.352,304.07,271.44,256.001,271.44z M271,317.587v-17.11c15.43-1.984,30.192-7.078,43.305-14.728l33.702,24    l-44.013,29.516L271,317.587z M383.428,448.093H330.83c-8.284,0-15-6.716-15-15s6.716-15,15-15h52.598c8.284,0,15,6.716,15,15    S391.712,448.093,383.428,448.093z" fill="#0E377B"/>
	</g>
</g>
<g>
</g>
<g>
</g>
<g>
</g>
<g>
</g>
<g>
</g>
<g>
</g>
<g>
</g>
<g>
</g>
<g>
</g>
<g>
</g>
<g>
</g>
<g>
</g>
<g>
</g>
<g>
</g>
<g>
</g>
</svg>
