<?xml version="1.0" encoding="iso-8859-1"?>
<!-- Generator: Adobe Illustrator 19.0.0, SVG Export Plug-In . SVG Version: 6.00 Build 0)  -->
<svg xmlns="http://www.w3.org/2000/svg" xmlns:xlink="http://www.w3.org/1999/xlink" version="1.1" id="Layer_1" x="0px" y="0px" viewBox="0 0 512.001 512.001" style="enable-background:new 0 0 512.001 512.001;" xml:space="preserve" width="512px" height="512px">
<g>
	<g>
		<path d="M445.434,299.922c5.465-5.316,7.398-13.123,5.044-20.376c-2.383-7.207-8.632-12.449-16.144-13.54l-110.896-16.114    l-49.641-100.584l-0.02-0.039c-3.378-6.806-10.196-11.034-17.795-11.034c-7.588,0.041-14.504,4.364-17.863,11.169l-49.595,100.489    l-110.99,16.127c-7.545,1.093-13.696,6.276-16.05,13.527c-2.304,7.229-0.328,15.139,5.105,20.435l72.701,70.867    c4.722,4.604,6.878,11.237,5.762,17.736l-17.178,100.156c-1.29,7.498,1.726,14.94,7.873,19.423    c6.165,4.446,14.317,5.021,21.046,1.484l89.862-47.243c5.838-3.069,12.812-3.069,18.65,0l90.008,47.32    c6.742,3.52,14.752,2.924,20.901-1.56c6.097-4.497,9.138-12.047,7.857-19.515L366.91,388.586    c-1.115-6.501,1.04-13.134,5.762-17.736L445.434,299.922z" fill="#0E377B"/>
	</g>
</g>
<g>
	<g>
		<path d="M401.005,17.948c-4.566-8.256-12.04-14.174-21.037-16.663C376.893,0.432,373.711,0,370.511,0H141.436    c-3.201,0-6.383,0.432-9.458,1.282c-9.476,2.624-17.249,9.038-21.724,17.978c-4.187,8.363-4.711,18.094-1.984,27.04    l51.296,160.188c0.881,2.75,4.617,3.125,6.027,0.606l65.673-117.369c4.867-8.7,14.889-14.228,25.887-14.279    c11.013,0,20.892,5.406,25.788,14.108l0.028,0.051l46.08,82.379l0.028-0.007l0.237,0.481l19.384,34.654    c1.419,2.538,5.19,2.134,6.04-0.646l49.227-161.035C406.694,36.298,405.616,26.282,401.005,17.948z" fill="#0E377B"/>
	</g>
</g>
<g>
</g>
<g>
</g>
<g>
</g>
<g>
</g>
<g>
</g>
<g>
</g>
<g>
</g>
<g>
</g>
<g>
</g>
<g>
</g>
<g>
</g>
<g>
</g>
<g>
</g>
<g>
</g>
<g>
</g>
</svg>
