<?xml version="1.0"?>
<svg xmlns="http://www.w3.org/2000/svg" id="Capa_1" enable-background="new 0 0 509.461 509.461" height="512px" viewBox="0 0 509.461 509.461" width="512px"><g><path d="m328.663 308.08 75.709 163.953 52.012-52.012-26.554-213.108z" fill="#0E377B"/><path d="m299.426 82.208-206.598-25.743-52.012 52.012 158.944 73.397z" fill="#0E377B"/><path d="m491.558 17.63c-11.37-11.369-26.486-17.63-42.564-17.63s-31.194 6.261-42.564 17.63l-297.025 297.026-52.564-20.337-56.54 56.54 114.634 43.969 43.969 114.633 56.496-56.497-20.911-53.137 297.069-297.068c23.469-23.47 23.469-61.658 0-85.129z" fill="#0E377B"/><path d="m114.698 223.118 32.482-32.481-29.024-13.402-24.671 24.67z" fill="#0E377B"/><path d="m83.779 161.36-29.024-13.402-26.011 26.011 21.213 21.213z" fill="#0E377B"/><path d="m320.241 361.402-33.63 33.629 21.213 21.213 25.819-25.819z" fill="#0E377B"/><path d="m314.547 459.773 21.213 21.213 27.16-27.16-13.402-29.024z" fill="#0E377B"/></g></svg>
