<?xml version="1.0"?>
<svg xmlns="http://www.w3.org/2000/svg" id="Layer_1" enable-background="new 0 0 499.687 499.687" height="512px" viewBox="0 0 499.687 499.687" width="512px"><path d="m427.418 70.827-162.311-67.788c-9.7-4.051-20.827-4.052-30.527 0l-162.311 67.788c-11.627 4.856-19.086 16.136-19.002 28.737l1.252 187.838c.375 56.408 28.927 108.298 76.375 138.806 119.482 76.821 112.262 73.457 118.949 73.457 6.685 0-.532 3.364 118.949-73.457 0-.429 75.733-42.601 76.376-138.806l1.252-187.836c.086-12.601-7.373-23.881-19.002-28.739zm-41.435 209.2c-.265 39.59-20.3 76.001-53.594 97.408-79.148 50.889-75.915 50.052-82.546 50.052-6.679 0-3.508.766-82.546-50.052-33.294-21.407-53.329-57.818-53.592-97.399l-.839-135.851c-.07-10.585 6.201-20.069 15.975-24.152l108.742-45.416c7.792-3.253 16.729-3.253 24.52 0l108.742 45.416c9.777 4.084 16.049 13.568 15.978 24.162z" fill="#1F71FA"/><path d="m144.89 148.008.814 131.822c.191 28.722 14.733 55.15 38.9 70.688l65.24 41.946 65.239-41.946c0-.219 38.574-21.697 38.9-70.697l.814-131.813-104.954-43.834z" fill="#1F71FA"/></svg>
