<?xml version="1.0"?>
<svg xmlns="http://www.w3.org/2000/svg" viewBox="0 0 64 64" width="512px" height="512px"><g id="Protect_package" data-name="Protect package"><polygon points="30.133 4 25.867 4 24.153 16 31.847 16 30.133 4" fill="#FFFFFF"/><path d="M38,37.721V42.3a18.96,18.96,0,0,0,8.461,15.809L49,59.8l2.539-1.693A18.96,18.96,0,0,0,60,42.3V37.721L49,34.054Zm18,3.162a1,1,0,0,1,2,0V42.3a1,1,0,0,1-2,0Zm-.4,4.868a1,1,0,0,1,1.947.459A16.927,16.927,0,0,1,50.43,56.441a1,1,0,0,1-1.11-1.664A14.926,14.926,0,0,0,55.6,45.751Z" fill="#FFFFFF"/><polygon points="23.847 4 10.618 4 4.618 16 22.132 16 23.847 4" fill="#FFFFFF"/><rect x="24" y="18" width="8" height="14" fill="#FFFFFF"/><path d="M34,18V33a1,1,0,0,1-1,1H23a1,1,0,0,1-1-1V18H4V56H41.1A20.947,20.947,0,0,1,36,42.3V37a1,1,0,0,1,.684-.949l12-4a1,1,0,0,1,.632,0L52,32.946V18ZM17,52H9a1,1,0,0,1,0-2h8a1,1,0,0,1,0,2Zm0-4H9a1,1,0,0,1,0-2h8a1,1,0,0,1,0,2Zm0-4H9a1,1,0,0,1,0-2h8a1,1,0,0,1,0,2Zm6,8H21a1,1,0,0,1,0-2h2a1,1,0,0,1,0,2Zm0-4H21a1,1,0,0,1,0-2h2a1,1,0,0,1,0,2Zm0-4H21a1,1,0,0,1,0-2h2a1,1,0,0,1,0,2Z" fill="#FFFFFF"/><polygon points="51.382 16 45.382 4 32.153 4 33.868 16 51.382 16" fill="#FFFFFF"/></g></svg>
