<?xml version="1.0" encoding="iso-8859-1"?>
<!-- Generator: Adobe Illustrator 18.0.0, SVG Export Plug-In . SVG Version: 6.00 Build 0)  -->
<!DOCTYPE svg PUBLIC "-//W3C//DTD SVG 1.1//EN" "http://www.w3.org/Graphics/SVG/1.1/DTD/svg11.dtd">
<svg xmlns="http://www.w3.org/2000/svg" xmlns:xlink="http://www.w3.org/1999/xlink" version="1.1" id="Capa_1" x="0px" y="0px" viewBox="0 0 490 490" style="enable-background:new 0 0 490 490;" xml:space="preserve" width="512px" height="512px">
<g>
	<path d="M251.009,437.1h-33.188L198.52,147.481c-0.396-5.91-5.342-10.535-11.27-10.535h-64.836c-5.914,0-10.867,4.625-11.26,10.535   L91.856,437.1H58.653c-7.811,0-14.178,6.366-14.178,14.177v24.546c0,7.823,6.367,14.178,14.178,14.178h192.355   c7.826,0,14.18-6.354,14.18-14.178v-24.546C265.188,443.466,258.835,437.1,251.009,437.1z M130.583,195.465l2.397-35.949h29.289   L130.583,195.465z M195.2,437.1h-70.611l65.641-74.471L195.2,437.1z M136.226,323.548l47.783-54.22l3.623,54.22H136.226z    M123.343,304.02l3.418-51.203h41.717L123.343,304.02z M130.005,230.247l47.791-54.22l3.615,54.22H130.005z M174.698,346.119   l-58.594,66.471l4.434-66.471H174.698z" fill="#FFFFFF"/>
	<path d="M430.634,288.646h-11.285l-27.504-43.907c7.041-5.701,11.172-14.279,11.172-23.381c0-12.312-7.49-23.311-18.809-27.887   l-0.023-81.34h21.756c5.508,0,10.182-3.939,11.121-9.354c0.941-5.418-2.127-10.701-7.32-12.554L159.542,0.662   C158.323,0.228,157.048,0,155.739,0c-2.783,0-5.457,1.027-7.533,2.885L48.323,92.445c-3.459,3.099-4.668,8.101-3,12.438   c1.654,4.328,5.891,7.247,10.533,7.247h305.758l0.02,90.422c0,6.225,5.068,11.283,11.287,11.283c4.15,0,7.523,3.377,7.523,7.521   c0,4.158-3.373,7.52-7.523,7.52c-1.639,0-3.182-0.502-4.492-1.478c-1.969-1.473-4.301-2.257-6.756-2.257   c-3.539,0-6.922,1.699-9.035,4.534c-1.803,2.416-2.57,5.383-2.139,8.366c0.432,2.987,2,5.619,4.412,7.425   c1.477,1.104,3.031,2.065,4.67,2.871l-32.228,40.307h-12.197c-8.209,0-14.885,6.683-14.885,14.886v63.404   c0,8.203,6.676,14.885,14.885,14.885h115.479c8.215,0,14.891-6.682,14.891-14.885v-63.404   C445.524,295.328,438.849,288.646,430.634,288.646z M341.55,356.93c0,4.31-3.494,7.795-7.797,7.795   c-4.313,0-7.809-3.485-7.809-7.795v-43.886c0-4.311,3.496-7.81,7.809-7.81c4.303,0,7.797,3.499,7.797,7.81V356.93z M380.554,356.93   c0,4.31-3.484,7.795-7.797,7.795c-4.309,0-7.793-3.485-7.793-7.795v-43.886c0-4.311,3.484-7.81,7.793-7.81   c4.313,0,7.797,3.499,7.797,7.81V356.93z M356.251,288.646l20.451-25.571l16.018,25.571H356.251z M419.573,356.93   c0,4.31-3.502,7.795-7.811,7.795c-4.299,0-7.797-3.485-7.797-7.795v-43.886c0-4.311,3.498-7.81,7.797-7.81   c4.309,0,7.811,3.499,7.811,7.81V356.93z" fill="#FFFFFF"/>
</g>
<g>
</g>
<g>
</g>
<g>
</g>
<g>
</g>
<g>
</g>
<g>
</g>
<g>
</g>
<g>
</g>
<g>
</g>
<g>
</g>
<g>
</g>
<g>
</g>
<g>
</g>
<g>
</g>
<g>
</g>
</svg>
